<svg xmlns="http://www.w3.org/2000/svg" xmlns:xlink="http://www.w3.org/1999/xlink" viewBox="0 0 284.05 183.38"><defs><style>.a,.d{fill:none;}.b,.c{fill:#fff;}.c{font-size:31.03px;font-family:MyriadPro-Regular, Myriad Pro;}.d{stroke:#fff;stroke-miterlimit:10;stroke-width:2px;}.e{clip-path:url(#a);}.f{fill:#a80000;}</style><clipPath id="a" transform="translate(-9.11 -37.41)"><rect class="a" x="9.11" y="182.44" width="277" height="5" rx="2.5"/></clipPath></defs><title>logo</title><path class="b" d="M13.86,80.2a11.42,11.42,0,0,1,1.49.78l.07.07c2.78,2.34,5.48,3.06,8.75,3.62a26.32,26.32,0,0,0,5.83.22c1.64,0,5.41-1.78,6.19-3.41.64-1.28.35-2.07-.64-2.64A4.51,4.51,0,0,0,34,78c-1-.28-1.7-.35-2.77-.57-.78-.07-1.78-.21-2.49-.35a19.77,19.77,0,0,1-2.27-.57L21.54,75c-4.2-1.42-7.39-3.76-9.24-7C11,65.76,10,63.63,10.09,61.21a9.34,9.34,0,0,1-.21-3.34,15.1,15.1,0,0,1,.64-4.27,22.46,22.46,0,0,0,.64-2.42C13.65,42.72,20,39.45,28.22,38a38.61,38.61,0,0,1,9.11-.57,12,12,0,0,1,4.48.78,2.5,2.5,0,0,1-.5-.07h-.07a11.77,11.77,0,0,1,5.26,1.07,3.2,3.2,0,0,0,1.42.43A18.18,18.18,0,0,1,51.19,41,2.84,2.84,0,0,1,53,43.29c.43,3.34.92,6.61,1.42,9.81v.57c.07,2.21-1.92,2.78-3.84,2.14a6,6,0,0,1-2.35-1,8.35,8.35,0,0,1,1.07.29h.14a10.67,10.67,0,0,1-4-.86,36.35,36.35,0,0,0-7.18-1.56,13.22,13.22,0,0,0-6.76,1c-.71.22-1.06.57-1.21,2-.71,1.71,0-.64-.07.43-.35,1.28-.14,1.71.43,2,2,1.28,3.63,2.35,5.4,2.42a37.24,37.24,0,0,1,4.41.57c7.19,1.7,10.74,3.41,15.15,9.45a18.55,18.55,0,0,1,3.27,6.83,12.74,12.74,0,0,1,.07,6.54c0,.07-.21.71-.28,1.07a3.33,3.33,0,0,0-.22.85,3.1,3.1,0,0,1-.21.86c0,.07,0,.07-.07.07l-.07.14c-2.63,5.9-6.9,11.16-14.51,13.58,0,0-.42.14-.71.21a13,13,0,0,1-4.41.93,27.38,27.38,0,0,1-5.26.57H32.06a39.29,39.29,0,0,1-9.67-1.07,33.77,33.77,0,0,1-8.89-3.2,2.94,2.94,0,0,1-.85-.36,3.85,3.85,0,0,1-2.2-2.91L9.31,82.9C9.1,80.76,12.08,79.56,13.86,80.2Z" transform="translate(-9.11 -37.41)"/><path class="b" d="M59.44,97.9c0-.21-.07,0-.07.14l.28-.71c1.64-5.9,3.77-11.94,6.05-18.06l6.61-18.42c.28-.85.78-2.2,1.14-3.34.28-.71.49-1.35.78-2.2l.21-.64c.5-1,.93-2.49,1.42-3.84.22-.78.43-1.42.79-2.42l2.27-6.47c.78-2.2,5.62-2.77,4.48-2.7,1.71-.07,3.49-.07,5.19-.07H93c1.42.07,2.92.07,4.41.07,1.21,0,2.77.57,3.2,1.85.28.78.43,1.21.64,1.77a68.84,68.84,0,0,1,2.35,7l1.06,2.92c1.42,3.91,2.63,7.54,3.91,11.23l3.56,10,7.68,22.11c0,.07.07.15.07.22a4,4,0,0,1,.36.92.26.26,0,0,1,.07.21,2.39,2.39,0,0,1,.07,1.43l-.14.28c-.5.92-2.21,1.14-3,.92-.21-.07.78-.07.64-.07l-.29.07a54.52,54.52,0,0,1-6,.15c-.78-.07-1.56-.07-2.35-.07a18,18,0,0,0-2.77.14,11.13,11.13,0,0,1-4.27-.64A5.28,5.28,0,0,1,101,99a6.74,6.74,0,0,1-.72-1.35c0-.08-.14-.36-.07-.29l-2.2-6.18-.43-.86c-.21-.71.5-.14.22-.14a4.81,4.81,0,0,0-1-.07A17.78,17.78,0,0,0,95,89.94a19.26,19.26,0,0,1-3-.22,1.21,1.21,0,0,1-.5-.07h-.64a56.67,56.67,0,0,0-7.47.64c-1.28.14-1.92,1.28-2.63,3.56-.5,1.49-.92,2.63-1.42,4.26a3.24,3.24,0,0,1-2.77,1.78c-1.07.14-2.28.21-3.42.29l-2.34.21a29.87,29.87,0,0,1-4.34,0h-.71a14.49,14.49,0,0,1-4.13-.64c-.14.14,2.78-.5,1.71-.07a3.73,3.73,0,0,1-3.27.07C59.08,98.75,59.15,98.61,59.44,97.9Zm27-22.18h1.21a3.86,3.86,0,0,1,1-.08l4.84-.28h-.14c-.36.14-.5.36-.5.14L88.24,62.13a.24.24,0,0,0-.07-.14c-.08-.28,1.84.43,1.49.43s1.78-.78,1.63-.43a1.22,1.22,0,0,0-.21.43l.07-.14c-.07.07-.07.21-.07.49a4.88,4.88,0,0,1-.43,1.85c-.49,1.43-1.06,3.13-1.63,4.91s-1.35,4-2.06,6.26C86.89,75.86,86.89,75.86,86.46,75.72Z" transform="translate(-9.11 -37.41)"/><path class="b" d="M124.07,90.65a2.64,2.64,0,0,0,0-1.07,14,14,0,0,1,0-2.42V68.39a7.72,7.72,0,0,1,.22-2.27v.14l-.08.14a3.59,3.59,0,0,1-.14-.85V57a3.88,3.88,0,0,1,.36-1.36c.07-.07.07-.07.07-.28v.14h0a2.73,2.73,0,0,1-.43-1.56V50.62c0-1.5,0-3.06.07-4.63v-.78a3.79,3.79,0,0,0-.07-1.63,12.2,12.2,0,0,1,.07-2.28c0-.92,1-1.49,1.92-1.63a7.94,7.94,0,0,1,1.43-.15,46.52,46.52,0,0,0,5.4-.21h1.49a44.23,44.23,0,0,0,5.34.21h1.56a3.6,3.6,0,0,1,2.77,1.21l.36.64c2.91,5,6,10.24,8.82,14.93l5,8.68c0,.07.08.14.15.21a5.16,5.16,0,0,1,1,2.28c0,.07-.28-.43-.42-.57a3.56,3.56,0,0,1,1.28,1.42c.07.14.28.5.14.36l-.07-.08c.42.57.71.93.57.86h-.22c-.57-.21-1.92.43-1.92.78,0-2.2,0-4.41-.14-6.47a92.58,92.58,0,0,1,0-11.66,67.74,67.74,0,0,0,.07-7.54,15.9,15.9,0,0,1,.14-3.13c.22-1.35,1.5-1.85,2.85-1.85.64,0,1.49-.07,2.34-.14a33.08,33.08,0,0,1,4.63-.14,53.19,53.19,0,0,0,6.68.21c1.42,0,2.7.5,2.84,2.21,0,1.13,0,2.27.07,3.41a8,8,0,0,0,.15,2l-.07-.07a7.06,7.06,0,0,1,.14,1.71v.35A53.41,53.41,0,0,0,178.4,56v.85a18.54,18.54,0,0,1-.07,2.77c-.08.22,0,.43.07.79s.07.64.07.92v4.91c0,3.2.07,6.47,0,9.74,0,3.06,0,6.26.14,9.31v.93a3.49,3.49,0,0,1,.07.85,4.81,4.81,0,0,1,.07,1,16.87,16.87,0,0,0-.07,4.62c.07.92.07,2,.07,3.06a8.2,8.2,0,0,0,0,2.27c.07,1.42-1.35,2.21-2.91,2.21s-3.13.07-4.62.07c-.93.07-1.92.14-3,.14a31.39,31.39,0,0,1-3.63,0c-.28,0-.49-.07-.71-.07a9.43,9.43,0,0,0-2,0,3.61,3.61,0,0,1-3.13-1.21l-.14-.21c-.36-.79-.5-1-.78-1.57a4.6,4.6,0,0,1-.36-.57l.36.29c-.93-.93-1.21-1.35-.5-2.49.43-.07,4.34,3.2-.57.85a4.6,4.6,0,0,1-.71-.92c-.07-.14-.21-.5-.07-.29l-.14-.14-.43-.92c-.07-.15-.21-.29-.28-.43a8,8,0,0,1-1.35-2.84.24.24,0,0,1-.15-.08A7.44,7.44,0,0,1,152,87.31c-.14-.29-.43-.79-.43-.79l.07.07c-2.63-4.47-5.4-9.24-7.82-13.51a4,4,0,0,1-.28-.49,5.85,5.85,0,0,1-1.07-2.35,1.53,1.53,0,0,1-.21-.35c-.22-.5-.36-.79-.08-.64l-.28-.15a7.39,7.39,0,0,0,1.85-.21l.14-.14a1.44,1.44,0,0,0-.14.78v3.63a7.56,7.56,0,0,1-.14,1.77l.07.57v.29a2.36,2.36,0,0,1,0,1.21l.07-.15a14,14,0,0,0,0,2.42v2.42a2.7,2.7,0,0,1-.21,1.42l.14-.28a.26.26,0,0,0-.07.21c.14.57.71,3.27-.5,4.41l.35-.29c.08-.21,0,0,.15.57a4.69,4.69,0,0,1,.21,1.42,10.68,10.68,0,0,0,0,1.5V92a6.33,6.33,0,0,1-.28,2.27c-1.36,3.13-.64-2.06,0,0,0,.08.07.15.07.22a11.74,11.74,0,0,1,.21,3.41,2,2,0,0,1-.07.64c-.29,1.64-3.2,2.06-4.27,1.21-.57-.43,2.06-.57,1.64-.21a4,4,0,0,1-2.42.71q-3.63,0-7.25.21h-1.14l-3.48-.21a2.87,2.87,0,0,1-2.78-2.14,13.86,13.86,0,0,1,0-2.41v-.93a5.76,5.76,0,0,1,.14-2.2A4.4,4.4,0,0,1,124.07,90.65Z" transform="translate(-9.11 -37.41)"/><path class="b" d="M182.52,51.47a18.2,18.2,0,0,0,.28-2.28v-.42a6.15,6.15,0,0,1,.36-1.78,28.64,28.64,0,0,0,.71-3.27c.07-.57.22-1,.36-1.71.21-1.49,2.27-2.77,3.91-2.77h2.27c2.28,0,4.7-.07,7,.07h1a4.73,4.73,0,0,1,1.06-.07h18.35c.57,0,1.14.07,1.64.07a14.9,14.9,0,0,0,1.7.07c.85-.07,1.85-.07,2.63-.07a10.76,10.76,0,0,1,1.5-.07,15.07,15.07,0,0,1,1.77.14,4.89,4.89,0,0,0,.71.07h-.14c.29-.14,3.06,1.14,3,1l.07.21a17.71,17.71,0,0,1,1.35,6.54c-.07.07-.07.29,0,.64V49a7.06,7.06,0,0,0,.36,2.42c.92,2.2-1.64,3-3.27,2.41l.64.08h-.5c-.14-.08.71-.08.57-.08l.28-.07a7.86,7.86,0,0,1-4,.36c-.36,0-.71-.07-.93-.07l-.78-.14c-.5-.22,3-.57,1.64-.22a6.08,6.08,0,0,1-3.2.43h-1.71a11.56,11.56,0,0,1-1.56,0,6.16,6.16,0,0,0-1.57.07c-.28,0-.35.07-.35,1.14V68.25c0,.71.07,1.49.07,2.27.07,1.57.14,3.28.14,4.84,0,7.25,0,14.51.07,21.76v.28c-.14,2.14-1.56,2.42-3.2,2.56l-5.26.22h.28a20.58,20.58,0,0,1-6.54.07c-.07-.07-.07,0-.14-.07a4.68,4.68,0,0,1-2.06-.5l.42.14c-.07-.07,1,.07.72.07-.08,0-.36.07-.5.07h-.07a4.31,4.31,0,0,1-1.92.07l-1.07-.49c-.57-.79-.64-.93-.5-1.64V90.22c0-3.34,0-6.68-.07-10-.14-5.76-.14-11.45-.14-17.21a44.56,44.56,0,0,1,.21-5.26,13.74,13.74,0,0,0-.07-2.35c-.07-.78.43-.36.21-.36-.78-.14-1.42-.21-2.2-.28a12.37,12.37,0,0,0-3.2-.07,39.07,39.07,0,0,1-4.05,0H187a6.81,6.81,0,0,1-3.27-.78C182.59,53.25,182,52.75,182.52,51.47Z" transform="translate(-9.11 -37.41)"/><path class="b" d="M225,97.9c0-.21-.07,0-.07.14l.28-.71c1.64-5.9,3.77-11.94,6-18.06l6.61-18.42c.29-.85.78-2.2,1.14-3.34.28-.71.5-1.35.78-2.2l.21-.64c.5-1,.93-2.49,1.43-3.84.21-.78.42-1.42.78-2.42l2.27-6.47c.79-2.2,5.62-2.77,4.48-2.7,1.71-.07,3.49-.07,5.19-.07h4.41c1.43.07,2.92.07,4.41.07,1.21,0,2.77.57,3.2,1.85.29.78.43,1.21.64,1.77a68.84,68.84,0,0,1,2.35,7l1.06,2.92c1.43,3.91,2.64,7.54,3.91,11.23l3.56,10,7.68,22.11c0,.07.07.15.07.22a4,4,0,0,1,.36.92.26.26,0,0,1,.07.21,2.39,2.39,0,0,1,.07,1.43l-.14.28c-.5.92-2.21,1.14-3,.92-.21-.07.78-.07.64-.07l-.29.07a54.52,54.52,0,0,1-6,.15c-.78-.07-1.56-.07-2.34-.07a18,18,0,0,0-2.78.14,11.07,11.07,0,0,1-4.26-.64,5.15,5.15,0,0,1-1.21-.71,6.15,6.15,0,0,1-.71-1.35c0-.08-.15-.36-.07-.29l-2.21-6.18-.43-.86c-.21-.71.5-.14.22-.14a4.81,4.81,0,0,0-1-.07,17.78,17.78,0,0,0-1.85-.14,19.26,19.26,0,0,1-3-.22,1.21,1.21,0,0,1-.5-.07h-.64a56.67,56.67,0,0,0-7.47.64c-1.28.14-1.92,1.28-2.63,3.56-.5,1.49-.92,2.63-1.42,4.26a3.22,3.22,0,0,1-2.77,1.78c-1.07.14-2.28.21-3.42.29l-2.34.21a29.87,29.87,0,0,1-4.34,0h-.71a14.54,14.54,0,0,1-4.13-.64c-.14.14,2.78-.5,1.71-.07a3.73,3.73,0,0,1-3.27.07C224.62,98.75,224.69,98.61,225,97.9Zm27-22.18h1.21a3.9,3.9,0,0,1,1-.08l4.83-.28h-.14c-.36.14-.5.36-.5.14l-4.62-13.37a.24.24,0,0,0-.07-.14c-.07-.28,1.85.43,1.49.43s1.78-.78,1.64-.43a1.1,1.1,0,0,0-.22.43l.07-.14c-.07.07-.07.21-.07.49a5.08,5.08,0,0,1-.42,1.85c-.5,1.43-1.07,3.13-1.64,4.91s-1.35,4-2.06,6.26C252.42,75.86,252.42,75.86,252,75.72Z" transform="translate(-9.11 -37.41)"/><path class="b" d="M9.45,152.61c.36-4.87,3-8.36,7.55-10.73h.05c.36-.15,1-.41,1.49-.56a3.68,3.68,0,0,0,.41-.15l.51-.21c.62-.46.62,1.75.06,1.44l-.52-.26c-3.64-1.75-6.57-5.44-6.82-9.14-.42-3.9,1-6.77,4.41-9.29a22.27,22.27,0,0,1,12.27-4.31,29.13,29.13,0,0,1,4.67,0c.36,0,.61.1.92.16,1.08.15,2.31.36,3.29.56.31.1.61.21.87.31a9.17,9.17,0,0,0,1.18.36A2.62,2.62,0,0,1,42,123.25c0,.72.15,1.33.25,2,.16,1.13.26,2.26.36,3.24l.11,2.61c0,1.29-2.16,1.54-2.83,1l-1-.51a19.38,19.38,0,0,0-6.62-1.49c-2.31,0-3.91.41-5.24,2.46A2.18,2.18,0,0,0,27,135c1.33,2.21,4.83,2.78,7.44,2.93a4.46,4.46,0,0,0,1.13-.05c.1,0,.26,0,.41,0a3,3,0,0,0,.16-.57,6.28,6.28,0,0,0,.05-1.07v-.36c0-2,.82-2.26,2.72-2.42a39.91,39.91,0,0,1,4.88,0c.66,0,1.23,0,1.79.1,1.23.06,2.31.57,2.26,2a1.3,1.3,0,0,1-.21.77,2.6,2.6,0,0,0,.11.56,2.2,2.2,0,0,1,.1.57c0,.25-.15,0-.1.1a3.12,3.12,0,0,0,.66.25,1.92,1.92,0,0,1,2.06,1.24V139a22.9,22.9,0,0,1,.41,5.54,1,1,0,0,0,0,.57v.46c0,1.18-.82,1.49-1.75,1.74-.2,0-.3.11-.61.36a1.52,1.52,0,0,0-.67,1.44v3.08c0,1.64,0,3.28.1,4.93.11,1.23,0,2.46,0,3.69V162a1.43,1.43,0,0,1-.87,1.44,2.42,2.42,0,0,1-1.38.36h-.06a16,16,0,0,0-5.85,1.13c-.25.05-1,.26-1.54.46a21.91,21.91,0,0,1-2.67.72,34.43,34.43,0,0,1-4.15.62c-.83.1-1.7.1-2.52.15-.56,0-1,0-1.59.1-6.37-.2-12.68-1.9-16.27-7.8A11.33,11.33,0,0,1,9.45,152.61Zm22.28,3.08A15.45,15.45,0,0,0,36.1,155l.15-.1c-.1,0,0-.1,0-.36v-5.23c0-1-.05-1.39-.16-1.39h.11c-.16-.05-.36-.05-.52-.1a1.93,1.93,0,0,0-.41-.05,28.56,28.56,0,0,0-6.93.56,5,5,0,0,0-2.72,1.54,2.15,2.15,0,0,0-.46,2C25.78,154.82,28.81,155.59,31.73,155.69Z" transform="translate(-9.11 -37.41)"/><path class="b" d="M82.15,122.69h.1c-.1,0,.1-.11.2-.16a3.68,3.68,0,0,1,1.54-.36c.05,0-1.13.36-.82.21,1.59-1.44,7-2.16,9-2.16.83,0,1.6,0,2.42,0a19.51,19.51,0,0,1,8.93,2.11s0,0,0,0,0,0,0,0c1.28.36,1.9,1,1.8,2.36v2.15h.05v4.16a5.2,5.2,0,0,1-.05.88c0,1-1.54,1.38-2.31,1.12l-.26-.05-1.18-.61c-.72-.36-.82-.41-1.13-.41h-.1a5.45,5.45,0,0,1-1-.11h-.2a4,4,0,0,0-1-.3c-.26-.06-.62-.11-.77-.16h0a4.48,4.48,0,0,0-2.16,0,9,9,0,0,0-4,1.28C88,135,86.92,137.47,86.56,142a9.1,9.1,0,0,0,0,2.61c0,.36,0,.62.1.88a6.18,6.18,0,0,0,.11,1.13c.77,3.69,2.82,6.26,5.9,7.39l.67.15a8.69,8.69,0,0,0,4,.57c.36-.05.62-.11,1.08-.21,1.18-.56,2-1,3.28-1.64a13,13,0,0,0,1.9-1.64l.36-.36.16-.11c.72-.56,2.87-.3,2.92.93.11.72.26,1.23.41,1.85A8.49,8.49,0,0,1,108,155c.26,1.19.57,2.42.88,3.39.36,1.29,0,1.8-.93,2.62a17.44,17.44,0,0,1-4,2.62A24.53,24.53,0,0,1,98,165.5a23.15,23.15,0,0,1-6.52.2,5.2,5.2,0,0,0-.88,0c-.46-.05-1.13-.05-1.59-.15a22.88,22.88,0,0,1-7.08-2.42c-2.41-1.33-6-4.21-7.24-6.31-2.62-4.42-3.28-9.55-3.28-14.06C71.72,134.49,73.37,127.46,82.15,122.69Z" transform="translate(-9.11 -37.41)"/><path class="b" d="M111.51,162.67v-3.59a5.34,5.34,0,0,1,.15-1.54v-.21c-.1-3,0-6.1,0-9.13v-6.06l-.1-3.18c0-.72,0-1.49,0-2.26,0-1.49,0-3,.1-4.52a11.39,11.39,0,0,1,0-1.33v-1.29a4.57,4.57,0,0,0,0-.82c0-.31,0-.72,0-1v-5c0-1.24,1.13-1.65,2.42-1.54l1.33,1.38,0-.1-1.54-1.54-1,1-.47.72h0c0-.1-.05-.3-.05-.41l1.44-1,2-.11a12.42,12.42,0,0,0,2-.1h0a4.28,4.28,0,0,1,.82,0c.78,0,1.6,0,2.47,0s1.59,0,2.41,0a6.57,6.57,0,0,1,.93.1c.66.21,1.18.62,1.23,1.23a2.81,2.81,0,0,1,0,.67V141a4.09,4.09,0,0,1-.1.87c0,.1-.06.26-.06.31v.05c.36,1.59.31,9.55.31,10.52,0,0,0-.2,0-.15.1.46.21.51-.41,1.08l.36-.31c-.1.1,0,.26.15.72.11.31.31,1,.16.62,0,.05-.16.1.61.1,2,0,3.85,0,5.86-.05.61,0,1.28,0,1.95-.05s1.38-.06,2.1-.06c1.85-.05,3.8-.05,5.65-.05,1,0,2.1.46,2.1,1.59v.26a11.12,11.12,0,0,0-.2,2.67,14.53,14.53,0,0,1-.06,1.59c0,.57-.2,1.28-.3,1.9a7.43,7.43,0,0,0-.21,1.28l-.1.16c-.15.56-.92.82-1.44,1h-.82c-1.69,0-3.39,0-5.13.05s-3.49.05-5.24.05c-3.64-.05-7.29,0-10.93,0h-5.44C112.23,165.08,111.51,164.73,111.51,162.67Z" transform="translate(-9.11 -37.41)"/><path class="b" d="M147,163.24c0-.16-.05,0-.05.1l.21-.51c1.18-4.26,2.72-8.63,4.36-13l4.78-13.3c.2-.61.56-1.59.82-2.41.2-.51.36-1,.56-1.59l.16-.46c.35-.72.66-1.8,1-2.77.16-.57.31-1,.57-1.75l1.64-4.67c.56-1.59,4.05-2,3.23-2,1.23,0,2.52,0,3.75,0h3.18c1,0,2.11,0,3.19,0a2.38,2.38,0,0,1,2.3,1.33c.21.57.31.88.47,1.29a49.54,49.54,0,0,1,1.69,5l.77,2.1c1,2.82,1.9,5.44,2.82,8.11l2.57,7.24,5.54,16c0,.05.06.11.06.16a2.71,2.71,0,0,1,.25.67.18.18,0,0,1,.05.15,1.58,1.58,0,0,1,.05,1l-.1.2a2.16,2.16,0,0,1-2.15.67c-.16-.05.56-.05.46-.05l-.21.05a41.6,41.6,0,0,1-4.31.1c-.56-.05-1.13-.05-1.69-.05a13,13,0,0,0-2,.1,7.84,7.84,0,0,1-3.08-.46,3.7,3.7,0,0,1-.88-.51,4.42,4.42,0,0,1-.51-1c0-.05-.1-.25-.05-.2l-1.59-4.47-.31-.61c-.15-.52.36-.11.15-.11a3.44,3.44,0,0,0-.72,0,12.86,12.86,0,0,0-1.33-.1,13.81,13.81,0,0,1-2.16-.16.92.92,0,0,1-.36-.05h-.46a39.83,39.83,0,0,0-5.39.47c-.92.1-1.38.92-1.9,2.56-.36,1.08-.66,1.9-1,3.08a2.33,2.33,0,0,1-2,1.28c-.78.11-1.65.16-2.47.21l-1.69.15a20.39,20.39,0,0,1-3.13,0h-.52a10.39,10.39,0,0,1-3-.46c-.11.1,2-.36,1.23,0a2.7,2.7,0,0,1-2.36,0C146.78,163.85,146.83,163.75,147,163.24Zm19.51-16h.87a3.3,3.3,0,0,1,.72-.05l3.49-.21h-.1c-.26.11-.36.26-.36.11l-3.34-9.65a.17.17,0,0,0,0-.1c-.05-.21,1.34.3,1.08.3s1.28-.56,1.18-.3a.84.84,0,0,0-.15.3l.05-.1c-.05,0-.05.15-.05.36a3.66,3.66,0,0,1-.31,1.33c-.36,1-.77,2.26-1.18,3.55s-1,2.87-1.49,4.51C166.85,147.32,166.85,147.32,166.54,147.22Z" transform="translate(-9.11 -37.41)"/><path class="b" d="M191.7,124c0-.51.05-1.08.05-1.59,0-1.44,1.08-1.75,2.26-1.75h9.44c1.08,0,2.16.26,2.26,1.65v1.74c0,.57,0,1.13,0,1.75.05,1.28,0,2.56,0,3.8v2.56a2.81,2.81,0,0,1,.05.67,10.89,10.89,0,0,1,0,1.28,3.51,3.51,0,0,0,0,1,10.09,10.09,0,0,1,0,1.74v.77a12,12,0,0,0,.11,2.06L206,142v2.05c0,1.39-.05,2.72,0,4.11,0,2.1,1,5.23,2.46,5.54a6.37,6.37,0,0,0,2.11.57,4,4,0,0,0,3.13-1.08,6.28,6.28,0,0,0,2.05-5c0-1.65,0-3.24,0-4.88v-5.65a12.71,12.71,0,0,0,0-1.38,14.85,14.85,0,0,1,0-2.11,6.27,6.27,0,0,0,0-1v-.57a14.64,14.64,0,0,0,0-1.48,30.86,30.86,0,0,0-.15-3.75,12.71,12.71,0,0,1,0-2q.15-1.54.15-3.24c0-1.07,1.08-1.54,2.11-1.54a22.88,22.88,0,0,0,2.87,0c1,0,2-.05,3,0,.72.06,1.44,0,2.21,0h1.54c1.07,0,2.15.31,2.26,1.7v.46a25.51,25.51,0,0,0-.06,2.93,14,14,0,0,1,.06,1.59c0,1.54,0,3,.1,4.57s.1,3.28.1,4.87v2.88c0,.56.05,1.13.05,1.74,0,1.13,0,2.31.1,3.44a34.19,34.19,0,0,1-.2,6.93,12.08,12.08,0,0,1-1.59,4.77.4.4,0,0,1-.05.16c0,.05,0,.15-.11.2a5.9,5.9,0,0,1-1.84,2.52,11.93,11.93,0,0,1-5.65,3.8c-.31.1-.92.3-1.44.51a4.56,4.56,0,0,0-.82.26,20.39,20.39,0,0,1-3.9.66c-.21,0-.56.11-.92.16l-.52.15a12.39,12.39,0,0,1-1.54.1h-3.28a6.57,6.57,0,0,1-1.8-.2c-.61-.1-1-.21-1.54-.31a13.32,13.32,0,0,1-1.74-.36,14,14,0,0,1-10.78-9.7,14.54,14.54,0,0,1-.67-5.54,10.65,10.65,0,0,0-.05-1.75c0-.2-.05-.46-.05-.67,0-.61,0-1.18,0-1.79v-1.54a14.53,14.53,0,0,1-.06-1.64V127.36C191.59,126.23,191.65,125.15,191.7,124Z" transform="translate(-9.11 -37.41)"/><path class="b" d="M236.1,150.46a10.2,10.2,0,0,1,1.08.56l0,0a12,12,0,0,0,6.31,2.62,19,19,0,0,0,4.21.15,8.1,8.1,0,0,0,4-1.74s.15-.16.2-.21a1,1,0,0,0,.26-.36c.51-1,.36-1.59-.41-2.05a3.27,3.27,0,0,0-1.13-.62c-.72-.2-1.23-.25-2-.41-.57,0-1.29-.15-1.8-.25a15.1,15.1,0,0,1-1.64-.41l-3.55-1.08a11.65,11.65,0,0,1-6.67-5.08,9.21,9.21,0,0,1-1.59-4.88,6.36,6.36,0,0,1-.15-2.41,10.85,10.85,0,0,1,.46-3.08,16.34,16.34,0,0,0,.46-1.75c1.8-6.11,6.37-8.47,12.32-9.49a27.4,27.4,0,0,1,6.57-.41,8.59,8.59,0,0,1,3.23.56,1.94,1.94,0,0,1-.36,0h0a8.52,8.52,0,0,1,3.8.77,2.23,2.23,0,0,0,1,.31,13,13,0,0,1,2.36,1,2.05,2.05,0,0,1,1.28,1.65c.31,2.41.67,4.77,1,7.08v.41c.05,1.59-1.39,2-2.77,1.54a4.17,4.17,0,0,1-1.7-.72,5.37,5.37,0,0,1,.77.21h.11a7.72,7.72,0,0,1-2.93-.62,27.1,27.1,0,0,0-5.18-1.13,9.57,9.57,0,0,0-4.88.72c-.51.15-.77.41-.87,1.44-.52,1.23,0-.46,0,.3-.26.93-.11,1.24.3,1.44,1.44.93,2.62,1.7,3.9,1.75a26.89,26.89,0,0,1,3.19.41c5.18,1.23,7.75,2.46,10.93,6.82a13.3,13.3,0,0,1,2.36,4.93,9.26,9.26,0,0,1,0,4.73c0,.05-.15.51-.2.76a3.54,3.54,0,0,0-.16.62,2.25,2.25,0,0,1-.15.62c0,.05,0,.05-.05.05l0,.1c-1.9,4.26-5,8.06-10.47,9.8,0,0-.31.11-.52.16a9.35,9.35,0,0,1-3.18.67,20.06,20.06,0,0,1-3.8.41h-.77a28.51,28.51,0,0,1-7-.77,24.51,24.51,0,0,1-6.42-2.31,2.24,2.24,0,0,1-.61-.26,2.79,2.79,0,0,1-1.59-2.1l-.82-8.47C232.66,150.87,234.82,150,236.1,150.46Z" transform="translate(-9.11 -37.41)"/><path class="b" d="M274.34,131.29V130c0-.3,0-.59,0-.9s0-.59,0-.89c0-.15,0-.29,0-.44v-1.14c0-.12,0-.21,0-.31s0-.12,0-.16,0,0,0,0a.1.1,0,0,0,0,0,1.57,1.57,0,0,1,0-.42v-.34c0-.16.17-.24.33-.24h.23a2.47,2.47,0,0,1,.39,0h.43c.1,0,.21,0,.32,0h.47l.5,0a.93.93,0,0,1,.23,0s0,0,0,0h0l.26,0a.49.49,0,0,1,.21,0s-.07,0-.06,0-.06,0,0,0a.48.48,0,0,1,.22,0h.05a.68.68,0,0,1,.19,0l.07,0a1.56,1.56,0,0,1,.49.16,1.51,1.51,0,0,1,.55.3h0s0,0,0,0a1.78,1.78,0,0,1,.24.12,2,2,0,0,1,.7,1.12,2.12,2.12,0,0,1,0,.83,5.79,5.79,0,0,1-.38,1h0a1.37,1.37,0,0,1-.17.19l-.54.52a4.43,4.43,0,0,1-.39.31l-.13.09-.06,0s0,0,0,0,0-.16,0-.14v0s-.28,0-.2,0a2.24,2.24,0,0,1,.35,0h.18l.1,0c.33,0,.42.06.52.27a2.91,2.91,0,0,0,.17.3s0,.08,0,.07a.65.65,0,0,1,.09.24h0l.12.13c.19.38.36.71.56,1.06l.08.17c.1.26-.06.33-.32.33h-1.07a.47.47,0,0,1-.17,0h0c.07,0,.08,0,.05,0a.39.39,0,0,1-.15,0h-.33a.43.43,0,0,1-.46-.2h0a1,1,0,0,0-.06-.14c0-.06-.06-.14-.08-.17h0a1.89,1.89,0,0,0-.16-.38,2.78,2.78,0,0,1-.12-.26l-.07-.17a1,1,0,0,0-.21-.32c-.11-.11-.09-.08-.05-.08s0,0,0,0a3.17,3.17,0,0,1-.37.17l-.1,0s-.07.06-.1.19a.34.34,0,0,1,0,.14h0a.65.65,0,0,1,.05.3v.56a.57.57,0,0,1,0,.12.23.23,0,0,1-.19.2.49.49,0,0,1-.15,0h-.58a7.36,7.36,0,0,1-.82,0h-.26c-.11,0-.26-.06-.29-.16v0A2.47,2.47,0,0,1,274.34,131.29Zm2.32-4v.55c0,.16,0,.32,0,.49a.67.67,0,0,0,0,.16h0c0,.08-.07,0,0,0h0s-.05,0-.07,0l.06,0a1.44,1.44,0,0,1,.17-.08,1.27,1.27,0,0,0,.22-.13l.19-.1.12-.07a1.16,1.16,0,0,0,.46-.67.42.42,0,0,0,0-.3l-.07-.15-.09-.13-.16-.14a.31.31,0,0,0-.12-.07.91.91,0,0,0-.23,0l-.27-.05c-.05,0-.06,0-.16.06s-.06.06-.05.17A4.1,4.1,0,0,1,276.66,127.32Z" transform="translate(-9.11 -37.41)"/><path class="b" d="M9.24,210.45v-1.93a1.42,1.42,0,0,1,0-.47c0-.05,0-.05,0,0l0,0a.87.87,0,0,1-.07-.56v-.57c0-.3,0-.61,0-.89s0-.72,0-1.09v-.12a1.79,1.79,0,0,1,0-.61V204c0-.36.29-.52.68-.55l1.44-.07H12.8a1.24,1.24,0,0,1,.33,0,2.58,2.58,0,0,0,.6,0,8.38,8.38,0,0,1,1.21-.06h.52l.7,0a5.2,5.2,0,0,1,1.34.14,1.12,1.12,0,0,1,.38.14s.09,0,.09.07h0a1.87,1.87,0,0,1,.45.1.8.8,0,0,0,.23.13l.39.17a1,1,0,0,1,.15.11,2.16,2.16,0,0,1,.53.33l.05,0a0,0,0,0,0,0,0c.05.09-.09,0-.12,0a1,1,0,0,1,.59.33,3.75,3.75,0,0,1,1.26,2.16,4.42,4.42,0,0,1-.08,1.91l0,0s0,.12-.05.19l-.06.21c-.47,1.76-2.07,3-3.57,4l-.06,0h0a.92.92,0,0,1-.25.09s0,0,0,0l.07,0a2.82,2.82,0,0,1-.67.42l-.16.08,0,0a.81.81,0,0,1-.37,0h0c.11,0,.4-.16.26-.06a1.39,1.39,0,0,1-1.17.42h.07a1.86,1.86,0,0,1,.26-.08c-.07.21-.33.31-.49.38a4.33,4.33,0,0,1-.93.39s0,0,0,0l-.17.21.09-.11a1.77,1.77,0,0,0,0,.27c0,.12,0,.19-.05.27-.14.37,0,.11-.05,0a.9.9,0,0,1,.14.58v1.26a.78.78,0,0,1,0,.22.59.59,0,0,1-.63.46h-.14a2.58,2.58,0,0,1-.55,0,.63.63,0,0,0-.26,0,5,5,0,0,1-1.24.05l-.18,0a.84.84,0,0,1-.7-.12l.14.07c-.05,0,.38-.33.58-.37.08.44-.56.48-.83.44,0,0,0,0,0,0H10.1a.75.75,0,0,1-.58-.08.69.69,0,0,1-.28-.6v-2.62c0-.21,0-.38,0-.59a.62.62,0,0,0,0-.23c0-.09,0-.21,0-.28a9.93,9.93,0,0,0,0-1.22.8.8,0,0,1,0-.26c0-.09.06-.18,0-.23a.51.51,0,0,1,0-.3s0-.05,0-.05c-.12-.23-.11-.3.1-.49l0,0c-.05.07-.05.07-.07,0a.34.34,0,0,1,0-.12A6.06,6.06,0,0,1,9.24,210.45Zm4.89-.82h0v.64c0,.12,0,.26,0,.4a.58.58,0,0,0,0,.16c.16.21-.15.09-.08.07a3.09,3.09,0,0,0,.5-.28s.23-.14.35-.19,0,0,.06,0a2.69,2.69,0,0,0,1.61-1.71,1.28,1.28,0,0,0,0-.61,1.36,1.36,0,0,0-1-1.1l-.74-.14a.86.86,0,0,0-.3,0c-.4,0-.47,0-.49.37v.21Z" transform="translate(-9.11 -37.41)"/><path class="b" d="M22.52,217.05a2.55,2.55,0,0,0,0-.4v-5.5c0-.28,0-.56,0-.84v-6a1.74,1.74,0,0,1,.05-.49c0-.26.37-.38.62-.43h.24c.51,0,1,0,1.56-.06.3,0,.62,0,.92,0h.57l2.56,0c.41,0,.81,0,1.2,0H32c.35,0,.73.14.77.48a.07.07,0,0,0,0,.06,1.6,1.6,0,0,0,0,.21c-.28,1.13-.33-.09-.18.07l.13.12a4.79,4.79,0,0,1,.24,1.06c0,.2,0,.39.07.53l.14.75L33,207a2,2,0,0,1-.34,0s.34-.11.3-.09a.92.92,0,0,1-.7.12.67.67,0,0,0-.3,0H29.38a9.51,9.51,0,0,0-1.49.07,2.25,2.25,0,0,0-.4.07s0,0-.09.21a.24.24,0,0,1,0,.1.79.79,0,0,0,0,.33c0,.19,0,.37,0,.54s0,.18,0,.27a3.32,3.32,0,0,1,0,.43.52.52,0,0,0,0,.25c0,.05-.42-.11-.45-.09A6.35,6.35,0,0,1,30.48,208h.28c.36,0,.67.17.71.5l.14.74c.08.59.17,1.19.28,1.73V211c0,.28-.28.42-.56.45a2.58,2.58,0,0,1-.39,0,3.07,3.07,0,0,0-1.35.3,5.86,5.86,0,0,0-1.42.92,2.51,2.51,0,0,0-.68,1.17,4.49,4.49,0,0,0,0,.82c0,.2,0,.21.13.21h-.07a.53.53,0,0,0-.13,0l-.05,0a1.34,1.34,0,0,1,.58-.12h.1c1.37,0,2.76,0,4.14,0h.09a1.67,1.67,0,0,1,.63,0l.12,0h.09a.79.79,0,0,1,.4.12l.16.25s0-.13,0-.11l-.07.39c.12-.16,0-.2.08-.06a1.18,1.18,0,0,1,.06.86,2.27,2.27,0,0,0-.16.72c0,.27,0,.55-.07.85s-.33.47-.68.51H29.17a3.51,3.51,0,0,0-.58,0l-.05,0a3.54,3.54,0,0,1-.46,0H25a6.26,6.26,0,0,1-.63,0h-.4a1.94,1.94,0,0,0-.34,0H23.4c-.49,0-.81-.09-.88-.61C22.51,217.5,22.51,217.29,22.52,217.05ZM27,198.65l2.59,3.69a.85.85,0,0,1,.09.14.13.13,0,0,1,.05.07c.16.24.18.26.18.44l-.67.33H29c-.35,0-.75,0-1.1,0h-.63a1.06,1.06,0,0,1-.67-.22l0,0-.47-.61a5.81,5.81,0,0,0-.33-.49L25,201a23.83,23.83,0,0,1-1.68-2.38Zm-2.72.28.75-.31c.51.24.51.42,0,.66l-.75-.31Z" transform="translate(-9.11 -37.41)"/><path class="b" d="M34.65,216.74c0-.55,0-1.09,0-1.66v-1.19c0-.63,0-1.26,0-1.91s0-1.25,0-1.88c0-.32,0-.63,0-.95v-.73c0-.37,0-.73,0-1.12v-.56a2.28,2.28,0,0,0,0-.64c0-.11,0-.27,0-.35a.22.22,0,0,0,0-.06.24.24,0,0,0,0-.1,2.49,2.49,0,0,1-.05-.89v-.28a1.62,1.62,0,0,1,0-.44c0-.33.35-.5.7-.5l.47,0a5.82,5.82,0,0,1,.84,0l.57,0h.35c.21,0,.45,0,.68,0a3.62,3.62,0,0,0,.47,0l.53,0c.35,0,.7,0,1.07,0a2.2,2.2,0,0,1,.49,0s-.11,0,0,0H41l.55,0a.83.83,0,0,1,.45.07s-.15,0-.12,0-.14,0-.09,0a.85.85,0,0,1,.46-.07h.1a1.53,1.53,0,0,1,.41,0,.53.53,0,0,1,.16,0,3.67,3.67,0,0,1,1,.34,3.18,3.18,0,0,1,1.15.63l0,0c.07.09.05.07,0,.05a3.22,3.22,0,0,1,2,2.64,4.36,4.36,0,0,1-.08,1.76,12.28,12.28,0,0,1-.79,2l0,0a2.37,2.37,0,0,1-.35.4l-1.16,1.1a8.41,8.41,0,0,1-.82.66,1.55,1.55,0,0,0-.28.2l-.13.08c.09-.05,0,0,0,0s.05-.35.08-.3l0,0s-.6-.07-.42-.09a3.94,3.94,0,0,1,.75-.05l.37,0,.21,0c.7-.09.9.12,1.12.56a6.34,6.34,0,0,0,.35.64s.09.16.09.14a1.31,1.31,0,0,1,.19.53v0s-.07-.05,0,0a3,3,0,0,1,.25.26c.4.8.77,1.5,1.19,2.25l.18.35c.21.56-.13.7-.69.7-.77,0-1.52,0-2.28,0a1.36,1.36,0,0,1-.35-.07h0c.14,0,.15,0,.1,0a1.26,1.26,0,0,1-.33.05h-.37a.61.61,0,0,0-.33,0,.91.91,0,0,1-1-.44v0a1.54,1.54,0,0,0-.15-.29l-.15-.37,0,0a5.34,5.34,0,0,0-.33-.8c-.09-.18-.21-.42-.27-.56l-.14-.35a1.87,1.87,0,0,0-.45-.68c-.23-.23-.18-.18-.09-.18s.07,0-.09.07a5.75,5.75,0,0,1-.79.37c-.07,0-.14.05-.21.09s-.16.12-.21.38a1,1,0,0,1-.05.3s0,0,0,0v0a1.42,1.42,0,0,1,.11.65v1.18a1.42,1.42,0,0,1,0,.27c0,.21-.19.35-.42.42a1.48,1.48,0,0,1-.32,0l-1.22,0a16.72,16.72,0,0,1-1.74,0l-.19,0a.76.76,0,0,0-.23,0l-.14,0c-.25,0-.56-.14-.61-.35l0-.05A7.06,7.06,0,0,1,34.65,216.74Zm5-8.43v1.16c0,.35,0,.7,0,1.05a2.65,2.65,0,0,0,0,.33v0c.09.17-.14.09-.08,0h.1s-.12,0-.16,0l.13-.07a2.35,2.35,0,0,1,.37-.16,2.41,2.41,0,0,0,.47-.28c.07,0,.28-.16.4-.21l.25-.16a2.38,2.38,0,0,0,1-1.41A.87.87,0,0,0,42,208l-.14-.31a1.82,1.82,0,0,0-.19-.28l-.34-.3a.65.65,0,0,0-.26-.16l-.49-.07-.58-.09c-.1,0-.12,0-.33.13s-.13.12-.11.35A9.3,9.3,0,0,1,39.6,208.31Z" transform="translate(-9.11 -37.41)"/><path class="b" d="M48.73,217.05c0-.12,0-.26,0-.4v-5.5c0-.28,0-.56,0-.84v-6a1.46,1.46,0,0,1,.06-.49c0-.26.37-.38.61-.43h.25c.5,0,1,0,1.56-.06.29,0,.61,0,.91,0h.58l2.56,0c.4,0,.8,0,1.19,0h1.77c.35,0,.74.14.77.48a.07.07,0,0,0,0,.06c0,.07,0,.14,0,.21-.28,1.13-.33-.09-.17.07l.12.12a4.29,4.29,0,0,1,.24,1.06,5.07,5.07,0,0,0,.09.56,3.13,3.13,0,0,1,.09.44,1.67,1.67,0,0,1,0,.28l-.31.4a1.86,1.86,0,0,1-.33,0s.33-.11.29-.09a.92.92,0,0,1-.7.12.65.65,0,0,0-.3,0H55.58a9.51,9.51,0,0,0-1.49.07,2.41,2.41,0,0,0-.4.07s0,0-.09.21a.24.24,0,0,1,0,.1.79.79,0,0,0,0,.33,5.17,5.17,0,0,1,0,.54c0,.09,0,.18,0,.27a3.32,3.32,0,0,1,0,.43,1,1,0,0,0,0,.25c0,.05-.42-.11-.45-.09A6.41,6.41,0,0,1,56.69,208H57c.35,0,.66.17.7.5l.14.74c.09.59.17,1.19.28,1.73V211c0,.28-.28.42-.56.45a2.58,2.58,0,0,1-.39,0,3.1,3.1,0,0,0-1.35.3,5.86,5.86,0,0,0-1.42.92,2.51,2.51,0,0,0-.68,1.17,3.75,3.75,0,0,0,0,.82c0,.2,0,.21.12.21h-.07a.43.43,0,0,0-.12,0l-.06,0a1.34,1.34,0,0,1,.58-.12h.11c1.36,0,2.75,0,4.13,0h.09a1.66,1.66,0,0,1,.63,0l.13,0h.08a.87.87,0,0,1,.41.12l.16.25s-.06-.13,0-.11l-.07.39c.12-.16,0-.2.09-.06a1.19,1.19,0,0,1,0,.86,2.27,2.27,0,0,0-.16.72c0,.27,0,.55-.07.85s-.33.47-.68.51H55.37a3.57,3.57,0,0,0-.58,0l0,0a3.46,3.46,0,0,1-.46,0H51.16c-.21,0-.43,0-.63,0h-.4a1.88,1.88,0,0,0-.33,0h-.2c-.49,0-.8-.09-.87-.61A4.32,4.32,0,0,1,48.73,217.05Z" transform="translate(-9.11 -37.41)"/><path class="b" d="M66.31,217.05c0-.12,0-.26,0-.4v-5.5c0-.28,0-.56,0-.84v-6a1.46,1.46,0,0,1,.06-.49c0-.26.37-.38.61-.43h.25c.5,0,1,0,1.56-.06.29,0,.61,0,.91,0h.58l2.56,0c.4,0,.8,0,1.19,0h1.77c.35,0,.74.14.77.48a.07.07,0,0,0,0,.06c0,.07,0,.14.05.21-.28,1.13-.33-.09-.17.07l.12.12a4.29,4.29,0,0,1,.24,1.06,5.07,5.07,0,0,0,.09.56,3.13,3.13,0,0,1,.09.44,1.67,1.67,0,0,1,0,.28l-.31.4a1.86,1.86,0,0,1-.33,0s.33-.11.29-.09a.92.92,0,0,1-.7.12.65.65,0,0,0-.3,0H73.16a9.51,9.51,0,0,0-1.49.07,2.41,2.41,0,0,0-.4.07s0,0-.09.21a.24.24,0,0,1,0,.1.79.79,0,0,0,0,.33,5.17,5.17,0,0,1,0,.54c0,.09,0,.18,0,.27a3.32,3.32,0,0,1,0,.43,1,1,0,0,0,0,.25c0,.05-.42-.11-.45-.09A6.41,6.41,0,0,1,74.27,208h.28c.35,0,.66.17.7.5l.14.74c.09.59.17,1.19.28,1.73V211c0,.28-.28.42-.56.45a2.58,2.58,0,0,1-.39,0,3.1,3.1,0,0,0-1.35.3,5.86,5.86,0,0,0-1.42.92,2.6,2.6,0,0,0-.68,1.17,3.75,3.75,0,0,0,0,.82c0,.2,0,.21.12.21h-.07a.43.43,0,0,0-.12,0l-.06,0a1.34,1.34,0,0,1,.58-.12h.11c1.36,0,2.75,0,4.13,0h.09a1.66,1.66,0,0,1,.63,0l.13,0h.08a.87.87,0,0,1,.41.12l.16.25s-.06-.13,0-.11l-.07.39c.12-.16,0-.2.09-.06a1.19,1.19,0,0,1,.05.86,2.27,2.27,0,0,0-.16.72c0,.27,0,.55-.07.85s-.33.47-.68.51H73a3.57,3.57,0,0,0-.58,0l-.05,0a3.46,3.46,0,0,1-.46,0H68.74c-.21,0-.43,0-.63,0h-.4a1.88,1.88,0,0,0-.33,0h-.2c-.49,0-.8-.09-.87-.61A4.32,4.32,0,0,1,66.31,217.05Z" transform="translate(-9.11 -37.41)"/><path class="b" d="M77.79,206.41c0-.16,0-.35.07-.56v-.1a1.31,1.31,0,0,1,.09-.44,6.52,6.52,0,0,0,.17-.8c0-.14,0-.25.09-.42a1,1,0,0,1,1-.68h.56c.56,0,1.16,0,1.74,0H86.9a3.32,3.32,0,0,0,.43,0c.21,0,.45,0,.64,0h.37a3.25,3.25,0,0,1,.44,0l.18,0h0c.07,0,.75.28.74.24v.05a4.19,4.19,0,0,1,.34,1.61s0,.07,0,.16v.28a1.83,1.83,0,0,0,.09.59c.22.54-.41.74-.81.6h0s.18,0,.14,0l.07,0a2,2,0,0,1-1,.09l-.22,0-.2,0c-.12-.05.74-.14.41-.05a1.62,1.62,0,0,1-.79.11h-.81a1.65,1.65,0,0,0-.38,0c-.07,0-.09,0-.09.28v3.18c0,.18,0,.37,0,.56,0,.39,0,.81,0,1.19,0,1.78,0,3.56,0,5.35v.07c0,.52-.39.59-.79.63l-1.3,0h.07a5.14,5.14,0,0,1-1.61,0s0,0,0,0a1.22,1.22,0,0,1-.5-.12l.1,0s.25,0,.18,0l-.13,0h0a1.11,1.11,0,0,1-.48,0l-.26-.12c-.14-.19-.16-.23-.12-.4v-1.89c0-.82,0-1.64,0-2.46,0-1.42,0-2.81,0-4.23a9.36,9.36,0,0,1,.06-1.29,4,4,0,0,0,0-.58c0-.19.1-.09,0-.09l-.54-.07a3,3,0,0,0-.79,0c-.33,0-.68,0-1,0h-.44a1.56,1.56,0,0,1-.8-.2C77.81,206.85,77.66,206.72,77.79,206.41Z" transform="translate(-9.11 -37.41)"/><path class="b" d="M96.45,210.45v-1.93a1.19,1.19,0,0,1,.06-.47c0-.05,0-.05,0,0l0,0a1,1,0,0,1-.07-.56v-.57c0-.3,0-.61,0-.89s0-.72,0-1.09v-.12a1.58,1.58,0,0,1,0-.61V204c0-.36.3-.52.68-.55l1.44-.07H100a1.31,1.31,0,0,1,.34,0,2.5,2.5,0,0,0,.59,0,8.45,8.45,0,0,1,1.21-.06h.53l.7,0a5.08,5.08,0,0,1,1.33.14,1.1,1.1,0,0,1,.39.14s.08,0,.08.07h0a2,2,0,0,1,.46.1.6.6,0,0,0,.23.13l.38.17.16.11a2.62,2.62,0,0,1,.53.33l.05,0a0,0,0,0,0,0,0c.06.09-.08,0-.12,0a1.05,1.05,0,0,1,.6.33,3.81,3.81,0,0,1,1.26,2.16,4.42,4.42,0,0,1-.09,1.91l0,0,0,.19-.05.21c-.47,1.76-2.07,3-3.58,4l0,0h0a.85.85,0,0,1-.24.09s0,0,0,0l.07,0a3,3,0,0,1-.66.42l-.16.08,0,0a.81.81,0,0,1-.37,0h0c.1,0,.4-.16.26-.06a1.41,1.41,0,0,1-1.17.42h.07a1.53,1.53,0,0,1,.26-.08c-.07.21-.33.31-.49.38a5.51,5.51,0,0,1-.93.39s0,0,0,0l-.18.21.09-.11a1.17,1.17,0,0,0,0,.27c0,.12,0,.19-.06.27-.14.37,0,.11-.05,0a.9.9,0,0,1,.14.58v1.26a.78.78,0,0,1,0,.22c0,.28-.33.46-.63.46h-.14a2.46,2.46,0,0,1-.54,0,.69.69,0,0,0-.27,0,5,5,0,0,1-1.24.05l-.18,0a.85.85,0,0,1-.7-.12l.14.07s.39-.33.58-.37c.09.44-.56.48-.82.44,0,0,0,0,0,0h-.23a.76.76,0,0,1-.58-.08.69.69,0,0,1-.28-.6v-2.62a5.85,5.85,0,0,1,0-.59.48.48,0,0,0,0-.23c0-.09,0-.21,0-.28a8.28,8.28,0,0,0,0-1.22.61.61,0,0,1,0-.26.52.52,0,0,0,0-.23.61.61,0,0,1,0-.3s0-.05,0-.05c-.12-.23-.1-.3.11-.49l0,0c0,.07,0,.07-.07,0a.7.7,0,0,1,0-.12A6.12,6.12,0,0,1,96.45,210.45Zm4.9-.82h0v.64a2.67,2.67,0,0,1,0,.4c0,.09,0,.13,0,.16.16.21-.16.09-.09.07a2.74,2.74,0,0,0,.51-.28,3.19,3.19,0,0,1,.35-.19s0,0,.05,0a2.69,2.69,0,0,0,1.61-1.71,1.17,1.17,0,0,0,0-.61,1.33,1.33,0,0,0-1-1.1l-.74-.14a.83.83,0,0,0-.29,0c-.41,0-.48,0-.49.37v.21Z" transform="translate(-9.11 -37.41)"/><path class="b" d="M109.74,217.05a2.55,2.55,0,0,0,0-.4v-5.5c0-.28,0-.56,0-.84v-6a1.74,1.74,0,0,1,0-.49c0-.26.37-.38.61-.43h.25q.77,0,1.56-.06c.3,0,.61,0,.91,0h.58l2.56,0c.4,0,.81,0,1.19,0h1.77c.35,0,.74.14.77.48a.07.07,0,0,0,0,.06,1.6,1.6,0,0,1,0,.21c-.28,1.13-.33-.09-.17.07l.12.12a4.86,4.86,0,0,1,.25,1.06,5.33,5.33,0,0,0,.07.53l.14.75-.32.4a1.86,1.86,0,0,1-.33,0s.33-.11.3-.09a.92.92,0,0,1-.7.12.68.68,0,0,0-.3,0h-2.55a9.51,9.51,0,0,0-1.49.07,2.41,2.41,0,0,0-.4.07s0,0-.09.21a.46.46,0,0,1,0,.1.68.68,0,0,0,0,.33,5.29,5.29,0,0,1,0,.54c0,.09,0,.18,0,.27s0,.28,0,.43a.52.52,0,0,0,0,.25c0,.05-.43-.11-.46-.09A6.41,6.41,0,0,1,117.7,208H118c.35,0,.67.17.7.5l.14.74c.09.59.18,1.19.28,1.73V211c0,.28-.28.42-.56.45a2.45,2.45,0,0,1-.38,0,3.11,3.11,0,0,0-1.36.3,5.86,5.86,0,0,0-1.42.92,2.6,2.6,0,0,0-.68,1.17,3.75,3.75,0,0,0,0,.82c0,.2,0,.21.12.21h-.07a.48.48,0,0,0-.12,0l-.05,0a1.3,1.3,0,0,1,.57-.12h.11c1.37,0,2.75,0,4.14,0h.08a1.72,1.72,0,0,1,.64,0l.12,0h.09a.79.79,0,0,1,.4.12l.16.25,0-.11-.07.39c.13-.16,0-.2.09-.06a1.14,1.14,0,0,1,0,.86,2.3,2.3,0,0,0-.15.72c0,.27,0,.55-.08.85s-.33.47-.68.51h-3.65a3.44,3.44,0,0,0-.57,0l-.06,0a3.39,3.39,0,0,1-.45,0h-3.12a6.26,6.26,0,0,1-.63,0h-.41a1.83,1.83,0,0,0-.33,0h-.19c-.49,0-.81-.09-.88-.61A4.32,4.32,0,0,1,109.74,217.05Zm4.45-18.4,2.6,3.69s.07.09.09.14a.68.68,0,0,1,.05.07c.16.24.17.26.17.44l-.66.33h-.21c-.35,0-.76,0-1.11,0h-.63a1.08,1.08,0,0,1-.67-.22l0,0c-.23-.28-.33-.42-.47-.61s-.27-.39-.34-.49l-.79-1a25.63,25.63,0,0,1-1.68-2.38Zm-2.71.28.75-.31c.51.24.51.42,0,.66l-.75-.31Z" transform="translate(-9.11 -37.41)"/><path class="b" d="M121.87,216.74c0-.55,0-1.09,0-1.66v-1.19c0-.63,0-1.26,0-1.91s0-1.25,0-1.88c0-.32,0-.63,0-.95v-.73c0-.37,0-.73,0-1.12v-.56a3.41,3.41,0,0,0,0-.64c0-.11,0-.27,0-.35s0,0,0-.06a.24.24,0,0,0,0-.1,2.76,2.76,0,0,1-.06-.89v-.28a3.23,3.23,0,0,1,0-.44c0-.33.35-.5.7-.5l.48,0a5.75,5.75,0,0,1,.84,0l.56,0h.35c.21,0,.46,0,.69,0a3.77,3.77,0,0,0,.47,0l.52,0c.36,0,.71,0,1.07,0a2.15,2.15,0,0,1,.49,0s-.1,0,0,0h.07l.54,0a.88.88,0,0,1,.46.07s-.16,0-.12,0-.14,0-.09,0a.81.81,0,0,1,.45-.07h.11a1.5,1.5,0,0,1,.4,0,.42.42,0,0,1,.16,0,3.58,3.58,0,0,1,1,.34,3.24,3.24,0,0,1,1.16.63l0,0c.07.09,0,.07,0,.05a4.74,4.74,0,0,1,.51.26,4,4,0,0,1,1.49,2.38,4.19,4.19,0,0,1-.09,1.76,11.46,11.46,0,0,1-.79,2l0,0a2.37,2.37,0,0,1-.35.4l-1.15,1.1a8.6,8.6,0,0,1-.83.66,2.83,2.83,0,0,0-.28.2l-.12.08c.09-.05,0,0,0,0s0-.35.09-.3l0,0s-.59-.07-.42-.09a4.09,4.09,0,0,1,.76-.05l.37,0,.21,0c.7-.09.89.12,1.12.56a4.83,4.83,0,0,0,.35.64s.09.16.09.14a1.48,1.48,0,0,1,.19.53v0s-.07-.05,0,0l.25.26c.4.8.77,1.5,1.19,2.25l.17.35c.21.56-.12.7-.68.7-.77,0-1.53,0-2.28,0a1.28,1.28,0,0,1-.35-.07h0c.14,0,.16,0,.11,0a1.33,1.33,0,0,1-.34.05h-.37a.61.61,0,0,0-.33,0,.91.91,0,0,1-1-.44l0,0a1.58,1.58,0,0,0-.14-.29,3.66,3.66,0,0,0-.16-.37l0,0a4.46,4.46,0,0,0-.33-.8c-.09-.18-.21-.42-.26-.56l-.14-.35a1.86,1.86,0,0,0-.46-.68c-.23-.23-.17-.18-.09-.18s.07,0-.08.07a6.37,6.37,0,0,1-.79.37c-.07,0-.14.05-.21.09s-.16.12-.21.38a1,1,0,0,1,0,.3s0,0,0,0v0a1.54,1.54,0,0,1,.1.65v1.18c0,.07,0,.16,0,.27s-.2.35-.43.42a1.32,1.32,0,0,1-.31,0l-1.23,0a16.59,16.59,0,0,1-1.73,0l-.2,0a.69.69,0,0,0-.22,0l-.15,0c-.24,0-.56-.14-.61-.35l0-.05A6.27,6.27,0,0,1,121.87,216.74Zm4.94-8.43v1.16c0,.35,0,.7,0,1.05a1.34,1.34,0,0,0,0,.33v0c.09.17-.14.09-.09,0h.11c.05,0-.13,0-.16,0l.12-.07a3.66,3.66,0,0,1,.37-.16,2.41,2.41,0,0,0,.47-.28c.07,0,.28-.16.41-.21l.24-.16a2.34,2.34,0,0,0,1-1.41.78.78,0,0,0-.07-.63l-.14-.31a1,1,0,0,0-.19-.28l-.33-.3a.65.65,0,0,0-.26-.16l-.5-.07-.57-.09c-.11,0-.13,0-.34.13s-.12.12-.1.35S126.81,208,126.81,208.31Z" transform="translate(-9.11 -37.41)"/><path class="b" d="M135.94,217.05a2.55,2.55,0,0,0,0-.4v-5.5c0-.28,0-.56,0-.84v-6a1.74,1.74,0,0,1,0-.49c0-.26.37-.38.62-.43h.24c.51,0,1,0,1.56-.06.3,0,.62,0,.91,0h.58l2.56,0c.4,0,.81,0,1.19,0h1.78c.35,0,.73.14.77.48a.13.13,0,0,0,0,.06l.06.21c-.28,1.13-.34-.09-.18.07l.12.12a4.34,4.34,0,0,1,.25,1.06,3.45,3.45,0,0,0,.09.56,2.06,2.06,0,0,1,.08.44,1.86,1.86,0,0,1,0,.28l-.32.4a1.86,1.86,0,0,1-.33,0s.33-.11.3-.09a.92.92,0,0,1-.7.12.68.68,0,0,0-.3,0H142.8a9.46,9.46,0,0,0-1.49.07,2.35,2.35,0,0,0-.41.07s0,0-.08.21a.24.24,0,0,1,0,.1.82.82,0,0,0,0,.33,5.29,5.29,0,0,1,0,.54c0,.09,0,.18,0,.27a3.32,3.32,0,0,1,0,.43.52.52,0,0,0,0,.25c0,.05-.42-.11-.46-.09A6.41,6.41,0,0,1,143.9,208h.28c.35,0,.67.17.7.5l.14.74c.09.59.18,1.19.28,1.73V211c0,.28-.28.42-.56.45a2.45,2.45,0,0,1-.38,0,3,3,0,0,0-1.35.3,5.68,5.68,0,0,0-1.42.92,2.51,2.51,0,0,0-.69,1.17,5.62,5.62,0,0,0,0,.82c0,.2,0,.21.12.21H141a.56.56,0,0,0-.12,0l0,0a1.34,1.34,0,0,1,.58-.12h.1c1.37,0,2.76,0,4.14,0h.09a1.67,1.67,0,0,1,.63,0l.12,0h.09a.79.79,0,0,1,.4.12l.16.25s-.05-.13,0-.11l-.08.39c.13-.16,0-.2.09-.06a1.18,1.18,0,0,1,.06.86,2,2,0,0,0-.16.72c0,.27,0,.55-.07.85s-.33.47-.69.51h-3.64a3.51,3.51,0,0,0-.58,0l0,0a3.54,3.54,0,0,1-.46,0h-3.12a6.26,6.26,0,0,1-.63,0h-.41a1.77,1.77,0,0,0-.33,0h-.19c-.49,0-.81-.09-.88-.61A4.32,4.32,0,0,1,135.94,217.05Z" transform="translate(-9.11 -37.41)"/><path class="b" d="M164.55,217.71l-.07.06s0,0-.06,0a.7.7,0,0,1,0-.12,2,2,0,0,1,0-.49,4.45,4.45,0,0,0,0-.73,4.33,4.33,0,0,1,0-.72,1.67,1.67,0,0,0,0-.45.88.88,0,0,0,0-.14v-.41c0-.55,0-1.11,0-1.67v-.56c0-.4,0-.81,0-1.19s0-.61,0-.91c0-.14,0-.26,0-.38v-1.12c0-1,0-2,0-3v-.64c0-.21,0-.42,0-.65a1,1,0,0,1,0-.24v-.2c0-.4.37-.61.77-.64a2.28,2.28,0,0,1,.37,0h.14c.54,0,1.14,0,1.74,0a7.42,7.42,0,0,0,.91,0,9.21,9.21,0,0,1,1.4,0h.49a10.74,10.74,0,0,1,2.12.12,7.52,7.52,0,0,1,3.81,1.83,7.08,7.08,0,0,1,1.82,5v.4c0,.26,0,.53,0,.79a4.35,4.35,0,0,1-.23,1.66,1.15,1.15,0,0,1-.1.5.14.14,0,0,0,0,.07,3,3,0,0,1-.45,1.07v0c0-.05,0,0,0,.07s-.05.12-.09.21a5.69,5.69,0,0,1-2.34,2.38,6.45,6.45,0,0,1-2.51.78h-.11c-.08,0,.13,0,.11,0a2.64,2.64,0,0,1-1.19.08c.07,0,.07,0,0,0a1.76,1.76,0,0,1-.31,0h-.07a9.84,9.84,0,0,0-1.64,0,.9.9,0,0,0-.21,0h-.45a1.93,1.93,0,0,1-.42,0h0a23.82,23.82,0,0,1-2.53,0h-.1a1.43,1.43,0,0,1-.51,0l0,0C164.51,218.33,164.16,218.1,164.55,217.71Zm4.7-7.81v1.93c0,.29,0,.59,0,.91s0,.9,0,1.34a1.06,1.06,0,0,0,.21.65l-.4.57h0l.47-.5s-.15,0-.14,0h-.07a5.11,5.11,0,0,0,1.37-.12l.07,0h0c.21,0,.58-.05.63.09-.21-.25-.54,0-.33-.11h0a.87.87,0,0,1,.42-.13l-.15,0a3.24,3.24,0,0,0,.47-.28l0,0a3,3,0,0,0,1.35-2.48,6.88,6.88,0,0,0-.08-1.7l-.18-.8V208l.91.91-.84.38-.19-.42a3,3,0,0,0-1.46-1.73,9.18,9.18,0,0,0-1.16-.24,1,1,0,0,0-.92.24c-.13.11,0,0,0,.05l.05-.12c0,.09,0,.23-.05.33a3.79,3.79,0,0,0-.05.58C169.25,208.63,169.25,209.28,169.25,209.9Z" transform="translate(-9.11 -37.41)"/><path class="b" d="M178.9,217.05a2.55,2.55,0,0,0,0-.4v-5.5c0-.28,0-.56,0-.84v-6a1.74,1.74,0,0,1,.05-.49c0-.26.37-.38.62-.43h.24c.51,0,1,0,1.56-.06.3,0,.61,0,.91,0h.58l2.56,0c.4,0,.81,0,1.19,0h1.77c.35,0,.74.14.78.48a.13.13,0,0,0,0,.06l.06.21c-.29,1.13-.34-.09-.18.07l.12.12a4.34,4.34,0,0,1,.25,1.06,3.45,3.45,0,0,0,.09.56,2.06,2.06,0,0,1,.08.44,1.86,1.86,0,0,1,0,.28l-.32.4a1.86,1.86,0,0,1-.33,0s.33-.11.3-.09a.92.92,0,0,1-.7.12.68.68,0,0,0-.3,0h-2.54a9.46,9.46,0,0,0-1.49.07,2.35,2.35,0,0,0-.41.07s0,0-.08.21a.24.24,0,0,1,0,.1.82.82,0,0,0,0,.33,5.29,5.29,0,0,1,0,.54c0,.09,0,.18,0,.27a3.32,3.32,0,0,1,0,.43.52.52,0,0,0,0,.25c0,.05-.42-.11-.46-.09a6.41,6.41,0,0,1,3.56-1.22h.28c.35,0,.67.17.7.5l.14.74c.09.59.18,1.19.28,1.73V211c0,.28-.28.42-.56.45a2.45,2.45,0,0,1-.38,0,3,3,0,0,0-1.35.3,5.68,5.68,0,0,0-1.42.92,2.51,2.51,0,0,0-.69,1.17,5.62,5.62,0,0,0,0,.82c0,.2,0,.21.12.21h-.07a.56.56,0,0,0-.12,0l-.05,0a1.34,1.34,0,0,1,.58-.12h.1c1.37,0,2.75,0,4.14,0h.09a1.67,1.67,0,0,1,.63,0l.12,0h.09a.79.79,0,0,1,.4.12l.16.25,0-.11-.07.39c.13-.16,0-.2.09-.06a1.14,1.14,0,0,1,0,.86,2.3,2.3,0,0,0-.15.72c0,.27,0,.55-.07.85s-.34.47-.69.51h-3.64a3.51,3.51,0,0,0-.58,0l-.05,0a3.62,3.62,0,0,1-.46,0h-3.12a6.26,6.26,0,0,1-.63,0h-.41a1.77,1.77,0,0,0-.33,0h-.19c-.49,0-.81-.09-.88-.61A4.32,4.32,0,0,1,178.9,217.05Z" transform="translate(-9.11 -37.41)"/><path class="b" d="M191,210.45v-1.93a1.42,1.42,0,0,1,.05-.47c0-.05,0-.05,0,0l0,0a.87.87,0,0,1-.07-.56v-.57c0-.3,0-.61,0-.89s0-.72,0-1.09v-.12a1.79,1.79,0,0,1,0-.61V204c0-.36.3-.52.68-.55l1.44-.07h1.42a1.23,1.23,0,0,1,.33,0,2.58,2.58,0,0,0,.6,0,8.38,8.38,0,0,1,1.21-.06h.52l.71,0a5.17,5.17,0,0,1,1.33.14,1,1,0,0,1,.38.14s.09,0,.09.07h0a1.87,1.87,0,0,1,.45.1.8.8,0,0,0,.23.13l.39.17.16.11a2.3,2.3,0,0,1,.52.33l.06,0s0,0,0,0-.09,0-.12,0a1,1,0,0,1,.59.33,3.77,3.77,0,0,1,1.27,2.16,4.58,4.58,0,0,1-.09,1.91l0,0s0,.12-.05.19l0,.21c-.48,1.76-2.07,3-3.58,4l0,0h0a1,1,0,0,1-.24.09s0,0,0,0l.07,0a2.82,2.82,0,0,1-.67.42l-.15.08,0,0a.81.81,0,0,1-.37,0h0c.11,0,.41-.16.27-.06a1.43,1.43,0,0,1-1.18.42h.07a1.86,1.86,0,0,1,.26-.08c-.07.21-.33.31-.49.38a4.29,4.29,0,0,1-.92.39s0,0,0,0l-.18.21.09-.11a1.77,1.77,0,0,0,0,.27c0,.12,0,.19,0,.27-.14.37,0,.11-.05,0a.9.9,0,0,1,.14.58v1.26a.78.78,0,0,1,0,.22.59.59,0,0,1-.63.46h-.14a2.58,2.58,0,0,1-.55,0,.63.63,0,0,0-.26,0,5,5,0,0,1-1.24.05l-.18,0a.84.84,0,0,1-.7-.12l.14.07s.39-.33.58-.37c.09.44-.56.48-.83.44,0,0,0,0,0,0h-.23a.75.75,0,0,1-.58-.08.69.69,0,0,1-.28-.6v-2.62a5.85,5.85,0,0,1,0-.59.65.65,0,0,0,0-.23c0-.09,0-.21,0-.28a8.28,8.28,0,0,0,0-1.22.61.61,0,0,1,0-.26c0-.09.05-.18,0-.23a.76.76,0,0,1,0-.3s0-.05,0-.05c-.12-.23-.1-.3.11-.49l0,0c0,.07,0,.07-.07,0a.3.3,0,0,1,0-.12A5.07,5.07,0,0,1,191,210.45Zm4.89-.82h0v.64c0,.12,0,.26,0,.4a.58.58,0,0,0,0,.16c.16.21-.15.09-.08.07a3.57,3.57,0,0,0,.51-.28,2.38,2.38,0,0,1,.35-.19.07.07,0,0,1,0,0,2.69,2.69,0,0,0,1.61-1.71,1.28,1.28,0,0,0,0-.61,1.34,1.34,0,0,0-1-1.1l-.74-.14a.86.86,0,0,0-.3,0c-.4,0-.47,0-.49.37v.21Z" transform="translate(-9.11 -37.41)"/><path class="b" d="M204.33,204.47c0-.17,0-.37,0-.54,0-.49.37-.6.77-.6h3.23c.37,0,.73.09.77.56v.6a5.62,5.62,0,0,1,0,.59c0,.44,0,.88,0,1.3v.87a1.62,1.62,0,0,1,0,.23,3.08,3.08,0,0,1,0,.43,2,2,0,0,0,0,.35,3,3,0,0,1,0,.6v.26a3.83,3.83,0,0,0,0,.7l0,.78v.7c0,.47,0,.93,0,1.4,0,.72.34,1.78.85,1.89a2.21,2.21,0,0,0,.72.19,1.32,1.32,0,0,0,1.06-.37,2.11,2.11,0,0,0,.71-1.71c0-.56,0-1.1,0-1.66v-1.92a3.68,3.68,0,0,0,0-.47c0-.25,0-.46,0-.72a1.82,1.82,0,0,0,0-.33v-.19c0-.18,0-.34,0-.51a9,9,0,0,0-.06-1.28,4.9,4.9,0,0,1,0-.66,9.79,9.79,0,0,0,0-1.1c0-.37.37-.53.72-.53a8,8,0,0,0,1,0c.34,0,.71,0,1,0s.49,0,.75,0h.53c.37,0,.73.11.77.58v.16a8.18,8.18,0,0,0,0,1,4.78,4.78,0,0,1,0,.54c0,.52,0,1,0,1.55s0,1.12,0,1.66v1c0,.19,0,.38,0,.59,0,.39,0,.79,0,1.17a11,11,0,0,1-.07,2.36,4.09,4.09,0,0,1-.54,1.63.1.1,0,0,1,0,0s0,.05,0,.07a2.08,2.08,0,0,1-.64.86,4,4,0,0,1-1.92,1.29,4.9,4.9,0,0,0-.49.17l-.29.09a7.72,7.72,0,0,1-1.33.23,2.75,2.75,0,0,0-.31.05l-.18,0a3.55,3.55,0,0,1-.52,0H210a2.27,2.27,0,0,1-.61-.07l-.53-.11a4.72,4.72,0,0,1-.59-.12,4.79,4.79,0,0,1-3.68-3.3,4.87,4.87,0,0,1-.23-1.89,3,3,0,0,0,0-.59c0-.07,0-.16,0-.23s0-.4,0-.61V211a4.87,4.87,0,0,1,0-.55v-4.84C204.3,205.22,204.32,204.86,204.33,204.47Z" transform="translate(-9.11 -37.41)"/><path class="b" d="M218.57,214.76a2.62,2.62,0,0,1,0-.28v-3.75a3.2,3.2,0,0,0,0-.62c0-.21,0-.41,0-.59a2.23,2.23,0,0,0,0-.37c0-.4,0-.82,0-1.22a1.34,1.34,0,0,1,.07-.52.2.2,0,0,0,0-.09,8.85,8.85,0,0,1,0-1c0-.21,0-.42,0-.65v-.31c0-.25,0-.49,0-.74v-.35c0-.35.32-.5.67-.5-.11,0-.07,0,.14-.14a1.71,1.71,0,0,1,.66-.12h2.63c.41,0,.72.15.67.57v.32a3.64,3.64,0,0,1-.05.71,1.75,1.75,0,0,1,.08.56v.91c0,.3,0,.61,0,.91,0,.12,0,.24,0,.37a5.8,5.8,0,0,1,0,.59c0,.44,0,.89,0,1.34,0,.28,0,.56,0,.84,0,.72,0,1.44,0,2.15.05,1.63.07,3.25,0,4.86v.21a.69.69,0,0,1-.92.54h-.07a3.93,3.93,0,0,1-.81.09h-2.54c-.27,0-.55-.19-.56-.46a.78.78,0,0,1,0-.22C218.55,216.77,218.55,215.78,218.57,214.76Z" transform="translate(-9.11 -37.41)"/><path class="b" d="M225.66,213.47a4,4,0,0,1,.37.19l0,0a4.15,4.15,0,0,0,2.16.89,6.21,6.21,0,0,0,1.43.05A2.77,2.77,0,0,0,231,214s.06-.05.07-.07a.22.22,0,0,0,.09-.12c.18-.34.12-.55-.14-.7a1,1,0,0,0-.38-.21,7,7,0,0,0-.69-.14,5.58,5.58,0,0,1-.61-.09,3.81,3.81,0,0,1-.56-.14l-1.21-.37a3.9,3.9,0,0,1-2.28-1.73,3,3,0,0,1-.54-1.66,2.37,2.37,0,0,1-.06-.82,3.94,3.94,0,0,1,.16-1,5.23,5.23,0,0,0,.16-.59c.61-2.08,2.17-2.88,4.21-3.23a9.22,9.22,0,0,1,2.24-.14,3,3,0,0,1,1.1.19l-.12,0h0a3,3,0,0,1,1.3.27.79.79,0,0,0,.35.1,4.75,4.75,0,0,1,.81.33.72.72,0,0,1,.44.56c.1.82.23,1.63.35,2.41V207c0,.54-.48.68-.95.53a1.62,1.62,0,0,1-.58-.25l.27.07h0a2.6,2.6,0,0,1-1-.21,9,9,0,0,0-1.77-.38A3.25,3.25,0,0,0,230,207c-.17.05-.26.14-.29.49s0-.16,0,.11,0,.41.1.49a3,3,0,0,0,1.34.59c.36,0,.77.09,1.08.14a5.36,5.36,0,0,1,3.74,2.32,4.45,4.45,0,0,1,.8,1.68,3.14,3.14,0,0,1,0,1.61s0,.17-.07.26a1.6,1.6,0,0,0-.05.21,1.08,1.08,0,0,1,0,.21s0,0,0,0l0,0a5.74,5.74,0,0,1-3.57,3.34l-.18.05a3.14,3.14,0,0,1-1.09.23,7.27,7.27,0,0,1-1.29.14h-.27a10.28,10.28,0,0,1-2.38-.26,8.47,8.47,0,0,1-2.19-.79.67.67,0,0,1-.21-.09,1,1,0,0,1-.55-.71l-.28-2.89C224.49,213.61,225.23,213.31,225.66,213.47Z" transform="translate(-9.11 -37.41)"/><path class="b" d="M243.19,206.67v-.89a.69.69,0,0,1,.56-.66,4.32,4.32,0,0,0,1.18-.89l.49-.51a1,1,0,0,1,.79-.33c1.08,0,2.17,0,3.26,0h.07c.33,0,.68.15.68.48v.35a2.61,2.61,0,0,1,0,.39v3c0,1.19,0,2.37,0,3.56v2.83c0,.28,0,.56,0,.84,0,.53.07.73.33.73h.48c.38,0,.78.13.78.65,0,.19,0,.4,0,.6a5.94,5.94,0,0,0-.06,1v.41c-.05.29-.36.43-.66.47H245.8c-.3,0-.59,0-.93,0h-.49c-.45,0-.86-.09-.86-.68s0-1.16,0-1.72v-.14c0-.52.4-.63.82-.63h.86c.19,0,.21,0,.23-.38s0-.61,0-.92V209c0-.35,0-.7,0-1v-.06s0-.06,0-.06.18.06.3,0a14.16,14.16,0,0,0-1.47.42c-.35.17-1.07,0-1.09-.53v-.21C243.17,207.27,243.17,207,243.19,206.67Z" transform="translate(-9.11 -37.41)"/><path class="b" d="M252.25,208.17a5.47,5.47,0,0,1,4.09-4.9,5.27,5.27,0,0,1,1.24-.28,8.17,8.17,0,0,1,2.21.1c3.12.58,4.66,3.16,5,5.92,0,.27.07.56.12.81a1.56,1.56,0,0,1,0,.57,2.75,2.75,0,0,0,0,.41.93.93,0,0,0,0,.24,8.45,8.45,0,0,1-3.17,6.22,8.16,8.16,0,0,1-4.82,1.61,7,7,0,0,1-3.13-.75c-.42-.21-.63-.46-.52-.9l0,0a4.11,4.11,0,0,0,0-1.06,10.94,10.94,0,0,1,0-1.14v-.37l.3-.31a1,1,0,0,1,.84,0,.46.46,0,0,1,.14.07l.25.09a4.18,4.18,0,0,0,1.71.3,3.36,3.36,0,0,0,3.09-1.86l.3-.69s0,0,0,.08.62,0,.28.13h0a6.82,6.82,0,0,1-2.84.61,4.74,4.74,0,0,1-4.79-3.26A5.66,5.66,0,0,1,252.25,208.17Zm6.21,1.86h.28c.31,0,.95-.28,1.05-.67a.82.82,0,0,0,.09-.5c0-.09,0-.13,0-.2a1.73,1.73,0,0,0-.14-.73c0-.09-.09-.16-.09-.24a1.72,1.72,0,0,0-.8-1.17c-.28-.18-.34-.2-.58-.13a1.15,1.15,0,0,0-.62.4,2.18,2.18,0,0,0-.56,1.93A1.35,1.35,0,0,0,258.46,210Z" transform="translate(-9.11 -37.41)"/><path class="b" d="M264.56,217.4v0c0-.08.07-.23.1-.34a2,2,0,0,0,0-.21c.08-.52.17-1.1.29-1.69a1.66,1.66,0,0,1,.28-.75l.85,0c.1.1.07.07.12.1s.33.16.51.25l.4.23a3.31,3.31,0,0,0,1.09.28l.33,0a1.94,1.94,0,0,0,.35,0c.28,0,.53-.07.83-.14a1.9,1.9,0,0,0,1.4-1.21.58.58,0,0,0-.14-.7,1.72,1.72,0,0,0-.86-.5,5.15,5.15,0,0,0-1.88-.19l-.59,0c-.41,0-.67-.23-.65-.45l.33-2.35c0-.4.39-.55.76-.55a10.39,10.39,0,0,0,1.49-.23,1.67,1.67,0,0,0,1.4-1,.81.81,0,0,0-.18-.87,2.23,2.23,0,0,0-1.93-.55,6.48,6.48,0,0,0-2.26.65.86.86,0,0,1-.77.05l-.07-.05c-.19-.19-.19-.21-.16-.4a.18.18,0,0,1,0,0l.56-2.83c.29-.35,0,0,0-.05a.82.82,0,0,1,.6-.58,10.86,10.86,0,0,1,4-.5,7.3,7.3,0,0,1,3.91,1.38.36.36,0,0,0,.09.08s.14.11.12.07l0,0a3.25,3.25,0,0,1,1.16,1.91,3.17,3.17,0,0,1-.16,1.71,4.57,4.57,0,0,1-2,2.37,3.3,3.3,0,0,0-.31.23c-.08.05-.13-.38-.08-.42a4.45,4.45,0,0,1,2.7,2.45,3.89,3.89,0,0,1,.25,2c-.25,2.15-2.63,3.89-4.73,4.26l-.62.07a13,13,0,0,1-2.7-.07l-1.28-.28a10.22,10.22,0,0,1-1-.3,1,1,0,0,0-.22-.08,2.58,2.58,0,0,0-.72-.25C264.8,218,264.52,217.82,264.56,217.4Z" transform="translate(-9.11 -37.41)"/><path class="b" d="M277.39,206.67v-.89a.69.69,0,0,1,.56-.66,4.16,4.16,0,0,0,1.17-.89l.49-.51a1,1,0,0,1,.79-.33c1.09,0,2.18,0,3.26,0h.07c.34,0,.69.15.69.48v.35c0,.13,0,.27,0,.39v3c0,1.19.06,2.37.06,3.56v2.83c0,.28,0,.56,0,.84,0,.53.07.73.34.73h.47c.39,0,.79.13.79.65,0,.19,0,.4,0,.6a7.11,7.11,0,0,0-.05,1v.41c0,.29-.37.43-.67.47H280c-.3,0-.6,0-.93,0h-.49c-.46,0-.86-.09-.86-.68s0-1.16,0-1.72v-.14c0-.52.4-.63.83-.63h.85c.2,0,.21,0,.23-.38s0-.61,0-.92V209c0-.35,0-.7,0-1v-.06s0-.06,0-.06.18.06.3,0a12.88,12.88,0,0,0-1.47.42c-.36.17-1.07,0-1.09-.53v-.21C277.37,207.27,277.37,207,277.39,206.67Z" transform="translate(-9.11 -37.41)"/><text class="c" transform="translate(142.49 175.63)">.</text><circle class="d" cx="268.36" cy="91.39" r="8.36"/><rect class="b" y="145.03" width="277" height="5" rx="2.5"/><g class="e"><rect class="f" x="18" y="172.56" width="8" height="23.56" transform="translate(127.68 1.02) rotate(45)"/><rect class="f" x="38" y="172.56" width="8" height="23.56" transform="translate(133.53 -13.12) rotate(45)"/><rect class="f" x="58" y="172.56" width="8" height="23.56" transform="translate(139.39 -27.26) rotate(45)"/><rect class="f" x="78" y="172.56" width="8" height="23.56" transform="translate(145.25 -41.4) rotate(45)"/><rect class="f" x="98" y="172.56" width="8" height="23.56" transform="translate(151.11 -55.54) rotate(45)"/><rect class="f" x="118" y="172.56" width="8" height="23.56" transform="translate(156.97 -69.69) rotate(45)"/><rect class="f" x="138" y="172.56" width="8" height="23.56" transform="translate(162.82 -83.83) rotate(45)"/><rect class="f" x="158" y="172.56" width="8" height="23.56" transform="translate(168.68 -97.97) rotate(45)"/><rect class="f" x="178" y="172.56" width="8" height="23.56" transform="translate(174.54 -112.11) rotate(45)"/><rect class="f" x="198" y="172.56" width="8" height="23.56" transform="translate(180.4 -126.26) rotate(45)"/><rect class="f" x="218" y="172.56" width="8" height="23.56" transform="translate(186.25 -140.4) rotate(45)"/><rect class="f" x="238" y="172.56" width="8" height="23.56" transform="translate(192.11 -154.54) rotate(45)"/><rect class="f" x="258" y="172.56" width="8" height="23.56" transform="translate(197.97 -168.68) rotate(45)"/><rect class="f" x="278" y="172.56" width="8" height="23.56" transform="translate(203.83 -182.82) rotate(45)"/></g></svg>